<?xml version="1.0" standalone="no"?>
<!DOCTYPE svg PUBLIC "-//W3C//DTD SVG 20010904//EN"
 "http://www.w3.org/TR/2001/REC-SVG-20010904/DTD/svg10.dtd">
<svg version="1.0" xmlns="http://www.w3.org/2000/svg"
 width="1000.000000pt" height="1000.000000pt" viewBox="0 0 1000.000000 1000.000000"
 preserveAspectRatio="xMidYMid meet">
<metadata>
Created by potrace 1.14, written by Peter Selinger 2001-2017
</metadata>
<g transform="translate(0.000000,1000.000000) scale(0.100000,-0.100000)"
fill="#000000" stroke="none">
<path d="M4348 6814 l-3 -3185 -310 517 c-170 284 -321 537 -335 560 -14 24
-47 81 -75 126 -27 45 -54 91 -60 100 -19 34 -715 1194 -830 1383 -63 105
-118 196 -121 203 -4 7 -143 240 -310 519 l-303 506 -572 1 c-449 1 -573 -2
-576 -12 -3 -6 -6 -1702 -7 -3767 l-1 -3755 670 0 670 0 0 2450 c0 1347 3
2450 6 2450 3 0 31 -42 61 -93 30 -50 92 -153 138 -227 45 -74 122 -200 170
-280 48 -80 176 -291 285 -470 109 -179 205 -337 214 -352 9 -15 130 -216 270
-445 140 -230 299 -492 354 -583 55 -91 110 -181 122 -200 13 -19 105 -171
206 -338 101 -167 246 -405 322 -530 76 -125 179 -296 230 -380 l92 -152 320
0 320 1 110 186 c61 103 133 225 161 272 28 47 138 232 244 411 106 179 211
357 235 395 39 66 216 365 328 555 27 47 57 96 66 110 8 14 22 37 31 51 8 15
62 106 120 203 58 97 113 191 124 209 10 18 53 91 96 162 42 72 169 285 282
475 113 190 249 419 303 510 255 430 289 487 306 516 29 52 44 74 49 74 3 0 5
-1121 5 -2490 l0 -2490 673 0 673 0 -6 2058 c-3 1131 -8 2823 -10 3760 -3 937
-7 1706 -9 1710 -3 5 -1044 8 -1136 3 -13 -1 -97 -132 -171 -266 -9 -16 -96
-165 -194 -330 -98 -165 -186 -313 -195 -330 -44 -76 -117 -199 -131 -223 -25
-41 -350 -594 -363 -617 -6 -11 -24 -39 -39 -62 -15 -24 -27 -45 -27 -47 0 -3
-46 -83 -103 -178 -107 -180 -351 -593 -377 -639 -99 -174 -684 -1159 -689
-1159 -3 0 -6 1420 -6 3155 l0 3155 -647 0 -648 0 -2 -3186z m652 -4238 c0 -3
-4 -8 -10 -11 -5 -3 -10 -1 -10 4 0 6 5 11 10 11 6 0 10 -2 10 -4z"/>
</g>
</svg>
